<svg xmlns="http://www.w3.org/2000/svg" xml:space="preserve" width="280pt" height="188pt" style="shape-rendering:geometricprecision;text-rendering:geometricprecision;image-rendering:optimizequality;fill-rule:evenodd" viewBox="0 0 8268 11692" id="svg668"><g id="Layer 1" transform="matrix(6.99342 0 0 6.98447 -23594.91 -32470.79)"><path d="m2720 6184 753-497 165 385 583-385 163 385 584-385 241 567-156 69-161-385-586 385-163-385-581 385-164-385-586 385-92-139zm1-1037 753-498 165 385 584-385 163 385 583-385 241 567-156 69-161-385-587 385-163-385-581 385-162-385-586 385-93-138z" id="path672" style="fill:#000"/></g></svg>