<svg xmlns="http://www.w3.org/2000/svg" xml:space="preserve" width="264" height="188pt" style="shape-rendering:geometricprecision;text-rendering:geometricprecision;image-rendering:optimizequality;fill-rule:evenodd" viewBox="0 0 8268 11692" id="svg602"><g id="Layer 1" transform="matrix(4.48758 0 0 4.50559 -8862.027 -12858.95)"><path d="M2796 5449v-134c0-257-26-543-77-857-52-315-115-572-189-771-162-432-336-648-523-648-83 0-151 36-204 109-52 73-78 167-78 284 0 154 49 313 149 477h-203c-98-177-147-343-147-497 0-160 46-292 138-398s208-160 347-160c225 0 415 151 573 454 157 301 256 706 297 1215h34c34-498 132-901 292-1208s354-461 579-461c139 0 254 53 346 158 92 104 138 236 138 396 0 155-49 322-146 501h-204c99-177 149-339 149-488 0-119-26-215-77-289-52-73-120-110-205-110-181 0-350 202-506 604-80 205-146 471-201 798-54 326-81 626-81 899v126h-201z" id="path606" style="fill:#000"/></g></svg>