<svg xmlns="http://www.w3.org/2000/svg" xml:space="preserve" width="320" height="188pt" style="shape-rendering:geometricprecision;text-rendering:geometricprecision;image-rendering:optimizequality;fill-rule:evenodd" viewBox="0 0 8268 11692" id="svg626"><g id="Layer 1" transform="matrix(5.82818 0 0 5.82271 -19181.62 -26091.57)"><path d="M2720 6219v-218c420 192 827 287 1219 287 257 0 466-33 627-100-102-52-179-118-230-197s-77-172-77-279c0-140 51-260 152-361 100-100 222-150 362-150s259 50 359 149c99 100 149 219 149 360 0 223-136 409-409 557s-615 222-1026 222c-356 0-731-89-1126-270zm1674-506c0 102 37 190 112 264 74 74 164 111 267 111 104 0 192-37 265-108 72-72 108-160 108-264 0-106-36-196-109-270s-161-111-265-111c-105 0-194 37-268 111-73 73-110 162-110 267zm887-961v218c-421-192-827-288-1220-288-256 0-466 33-628 101 104 52 181 118 231 197 52 79 77 172 77 279 0 140-50 260-151 361-101 100-222 150-363 150-140 0-259-49-358-149-99-99-149-219-149-359 0-224 136-411 409-559 272-148 615-222 1026-222 356 0 731 90 1126 271zm-1674 506c0-103-37-191-112-265-75-73-165-110-269-110s-192 36-264 108-108 160-108 264c0 106 37 196 110 270 72 74 161 111 265 111s194-37 267-111c74-74 111-163 111-267z" id="path630" style="fill:#000"/></g></svg>