<svg xmlns="http://www.w3.org/2000/svg" width="197pt" height="188pt" viewBox="0 0 8268 11692"><path d="M347.233 6958.171v-332.699c0-622.623-109.348-1492.393-323.29-2623.57C-194.753 2870.725-394.43 2129.28-579.847 1777.57c-261.485-499.048-670.351-750.95-1231.354-750.95h-180.662V242.402h713.14c670.35 0 1131.513 261.407 1388.243 784.22 304.273 632.128 580.02 1677.754 831.996 3141.63 361.323-1615.967 960.36-2923 1806.618-3925.85L4008.014.006c309.026 698.668 565.756 1749.047 770.19 3151.136L4954.11 4315.59c57.051 408.745 95.085 698.669 114.102 869.771 76.068 698.668 175.908 1226.234 290.01 1582.697 613.3-1173.952 1464.312-1763.305 2548.284-1763.305 651.333 0 1207.582 228.137 1663.99 674.904 461.164 446.767 689.368 993.345 689.368 1634.979 0 684.41-232.959 1273.762-694.122 1749.047-465.917 480.037-1031.674 717.68-1697.27 717.68-908.064 0-1702.026-351.711-2381.885-1055.132-484.934 1273.762-912.818 2086.499-1283.65 2438.21-370.832 351.71-979.378 527.565-1825.636 527.565h-865.275v-793.725h404.112c817.733 0 1378.735-166.35 1687.762-499.049 304.273-327.946 698.876-1192.964 1174.302-2595.053-213.941-375.475-356.57-693.916-423.129-945.816-66.56-251.901-152.136-803.231-256.73-1658.743l-242.467-1825.093c-156.89-1202.47-342.307-2029.465-556.248-2480.985-541.986 641.634-1012.658 1511.405-1407.261 2609.312-399.358 1097.907-594.283 2076.993-594.283 2942.011v513.307H347.233zm5353.297 960.075c689.368 765.208 1392.998 1150.188 2096.629 1150.188 475.426 0 874.783-166.35 1193.319-499.048 318.535-327.947 475.426-746.197 475.426-1240.493 0-442.014-152.137-822.242-456.41-1135.93-299.518-308.935-670.35-465.779-1102.987-465.779-936.59 0-1673.5 731.939-2205.977 2191.062z"/></svg>