<svg xmlns="http://www.w3.org/2000/svg" xml:space="preserve" width="196" height="188pt" style="shape-rendering:geometricPrecision;text-rendering:geometricPrecision;image-rendering:optimizeQuality;fill-rule:evenodd" viewBox="0 0 8268 11692" id="svg632"><g id="Layer 1" transform="matrix(4.26009 0 0 4.26093 -12024.51 -18381.66)"><path d="M4866 6842c-157 144-307 216-451 216-124 0-229-41-314-124-84-83-126-185-126-306 0-162 85-423 255-784l130-277c100-214 150-388 150-521 0-170-49-306-148-409-99-104-230-155-393-155-153 0-276 46-371 137-94 93-141 213-141 362 0 138 44 299 132 483l53 110c88 182 132 315 132 402 0 137-53 258-157 360s-228 153-370 153c-146 0-271-51-373-154-103-103-154-228-154-376 0-142 50-265 152-368 101-103 222-155 362-155 51 0 107 9 168 28-97-187-146-352-146-496 0-187 67-343 202-467 136-125 306-187 510-187 224 0 404 66 540 197 135 132 203 307 203 525 0 108-11 202-34 280-22 79-76 209-160 390l-93 203c-166 360-250 592-250 698 0 78 23 142 70 192 46 51 106 76 178 76 95 0 204-54 326-162l118 129zm-1996-881c0 106 36 196 107 269 71 72 158 109 262 109 102 0 188-37 260-110s108-162 108-266c0-106-36-195-107-268-72-72-159-109-263-109-102 0-188 37-260 110-71 73-107 161-107 265z" id="path636" style="fill:#000"/></g></svg>