<svg xmlns="http://www.w3.org/2000/svg" xml:space="preserve" width="300" height="188pt" style="shape-rendering:geometricPrecision;text-rendering:geometricPrecision;image-rendering:optimizeQuality;fill-rule:evenodd" viewBox="0 0 8268 11692" id="svg644"><g id="Layer 1" transform="matrix(6.48428 0 0 6.47398 -20499.79 -29016.36)"><path d="M2720 6288v-200h2158v200H2720zm853-789v187h-853v-201h598c-109-111-163-236-163-374 0-172 64-319 191-443s278-186 454-186c175 0 326 62 453 186 128 124 191 271 191 443 0 138-54 263-163 374h597v201h-853v-187c145-94 218-220 218-378 0-120-44-222-131-308-88-87-192-130-312-130-122 0-226 43-313 130-87 86-131 188-131 308 0 158 72 284 217 378z" id="path648" style="fill:#000"/></g></svg>