<svg xmlns="http://www.w3.org/2000/svg" xml:space="preserve" width="202" height="188pt" style="shape-rendering:geometricprecision;text-rendering:geometricprecision;image-rendering:optimizequality;fill-rule:evenodd" viewBox="0 0 8268 11692" id="svg674"><g id="Base" transform="matrix(5.54889 0 0 5.54912 -15669.98 -24593.71)"><path d="M3362 5518c0 165-39 340-115 524-77 184-179 350-308 497h-219c295-311 442-651 442-1021h-427v-150h427c-18-322-165-634-442-936h207c254 271 399 583 435 936h414c37-353 182-665 435-936h207c-277 302-424 614-442 936h427v150h-427c0 370 147 710 442 1021h-218c-130-147-232-313-309-497-76-184-115-359-115-524h-414z" id="path678" style="fill:#000"/></g></svg>