<svg xmlns="http://www.w3.org/2000/svg" xml:space="preserve" width="228" height="188pt" style="shape-rendering:geometricPrecision;text-rendering:geometricPrecision;image-rendering:optimizeQuality;fill-rule:evenodd" viewBox="0 0 8268 11692" id="svg650"><g id="Layer 1" transform="matrix(4.47214 0 0 4.48141 -13347.59 -19910.91)"><path d="M2889 6489V5057c0-238-56-431-169-575h216c76 116 127 247 154 395 64-158 143-289 236-395l194-39c91 106 148 258 173 455 49-141 130-280 242-416l198-39c108 146 162 319 162 519v1250c0 131 5 220 13 266 10 47 30 87 62 122 57 60 153 90 287 90h123v-201l318 287-318 276v-195h-184c-176 0-303-46-382-138-80-93-120-240-120-443V5067c0-204-29-350-88-439-150 173-255 389-313 649v1212h-201V5138c0-243-29-413-88-510-144 162-248 364-314 604v1257h-201z" id="path654" style="fill:#000"/></g></svg>