<svg xmlns="http://www.w3.org/2000/svg" xml:space="preserve" width="240" height="188pt" style="shape-rendering:geometricPrecision;text-rendering:geometricPrecision;image-rendering:optimizeQuality;fill-rule:evenodd" viewBox="0 0 8268 11692" id="svg614"><g id="Layer 1" transform="matrix(4.55245 0 0 4.54058 -8401.163 -13199.48)"><path d="M2373 3861c-89-35-160-80-216-134-55-54-116-141-183-262l-80-144c-98-176-210-264-334-264h-36v-150h99c176 0 336 124 479 371l109 192c74 126 150 214 230 264 80 51 184 76 313 76s233-25 313-76c80-50 156-138 229-264l111-192c142-247 302-371 477-371h99v150h-35c-125 0-237 88-335 264l-80 144c-67 121-128 208-183 262-56 54-128 99-216 134 154 85 272 195 356 328s125 280 125 438c0 230-85 430-256 600-172 170-373 255-605 255s-433-85-605-255-258-370-258-600c0-158 42-305 126-438s202-243 356-328zm381 1420c182 0 337-63 467-191 129-126 194-279 194-458 0-182-65-337-193-464-128-128-284-191-468-191-183 0-339 63-469 191-128 127-193 282-193 464 0 179 65 332 194 458 129 128 285 191 468 191z" id="path618" style="fill:#000"/></g></svg>